<svg width="131" height="38" viewBox="0 0 131 38" fill="none" xmlns="http://www.w3.org/2000/svg">
<path d="M27.9653 6.95377C27.9393 6.7715 27.783 6.66735 27.6528 6.66735C27.5226 6.66735 24.9448 6.61527 24.9448 6.61527C24.9448 6.61527 22.7836 4.5322 22.5753 4.29785C22.367 4.08954 21.9504 4.14162 21.7942 4.1937C21.7942 4.1937 21.3776 4.32389 20.7006 4.5322C20.5964 4.16766 20.4141 3.725 20.1798 3.25631C19.4247 1.79816 18.279 1.017 16.925 1.017C16.8208 1.017 16.7427 1.017 16.6386 1.04304C16.5865 0.990965 16.5605 0.938888 16.5084 0.91285C15.9095 0.287927 15.1544 -0.0245348 14.243 0.0015037C12.4985 0.0535806 10.7539 1.32946 9.32177 3.56877C8.3323 5.15712 7.57719 7.13604 7.34284 8.67231C5.33788 9.29723 3.93181 9.73989 3.87973 9.73989C2.86423 10.0523 2.83819 10.0784 2.708 11.0418C2.65592 11.7709 0 32.3152 0 32.3152L22.2889 36.1689L31.9492 33.7734C31.9231 33.7734 27.9913 7.13604 27.9653 6.95377ZM19.5809 4.89673C19.0601 5.05296 18.4873 5.23523 17.8624 5.44354C17.8624 4.55823 17.7322 3.30839 17.3416 2.26685C18.6696 2.47516 19.3205 3.98539 19.5809 4.89673ZM16.6906 5.78204C15.5189 6.14658 14.243 6.53716 12.9671 6.92773C13.3317 5.5477 14.0087 4.1937 14.8419 3.28235C15.1544 2.94385 15.597 2.57931 16.0918 2.371C16.6125 3.3865 16.7167 4.81862 16.6906 5.78204ZM14.2951 1.17323C14.7117 1.17323 15.0502 1.25135 15.3366 1.45966C14.868 1.694 14.3993 2.05854 13.9826 2.52723C12.863 3.725 12.0037 5.57373 11.6652 7.37039C10.5977 7.70889 9.55611 8.02135 8.61873 8.30777C9.24365 5.46958 11.6132 1.25135 14.2951 1.17323Z" fill="#95BF47"/>
<path d="M27.6538 6.66742C27.5236 6.66742 24.9458 6.61534 24.9458 6.61534C24.9458 6.61534 22.7846 4.53226 22.5763 4.29792C22.4982 4.2198 22.394 4.16772 22.2899 4.16772V36.169L31.9501 33.7734C31.9501 33.7734 28.0183 7.13611 27.9923 6.95384C27.9402 6.77157 27.784 6.66742 27.6538 6.66742Z" fill="#5E8E3E"/>
<path d="M16.9257 11.6405L15.806 15.8327C15.806 15.8327 14.5562 15.2599 13.072 15.364C10.8847 15.4942 10.8847 16.8742 10.8847 17.2127C11.0149 19.0875 15.9362 19.5041 16.2226 23.9046C16.4309 27.3677 14.3999 29.7372 11.4316 29.9195C7.89032 30.1018 5.93744 28.0187 5.93744 28.0187L6.69255 24.816C6.69255 24.816 8.67148 26.3002 10.2338 26.196C11.2493 26.1439 11.6399 25.2847 11.5878 24.7118C11.4316 22.2642 7.42163 22.4204 7.16125 18.3845C6.95294 14.9995 9.16621 11.5884 14.0614 11.276C15.9622 11.1458 16.9257 11.6405 16.9257 11.6405Z" fill="white"/>
<path d="M45.0211 20.5713C43.9015 19.9724 43.3286 19.4516 43.3286 18.7486C43.3286 17.8633 44.1358 17.2905 45.3857 17.2905C46.8438 17.2905 48.1458 17.8893 48.1458 17.8893L49.1613 14.7647C49.1613 14.7647 48.2239 14.0356 45.4638 14.0356C41.6101 14.0356 38.9282 16.2489 38.9282 19.3475C38.9282 21.1181 40.178 22.4461 41.8445 23.4095C43.1985 24.1646 43.6672 24.7114 43.6672 25.5186C43.6672 26.3518 42.9902 27.0288 41.7403 27.0288C39.8916 27.0288 38.121 26.0654 38.121 26.0654L37.0273 29.19C37.0273 29.19 38.6417 30.2836 41.3758 30.2836C45.3336 30.2836 48.1978 28.3308 48.1978 24.8156C48.1718 22.9148 46.7397 21.5608 45.0211 20.5713Z" fill="black"/>
<path d="M60.7997 13.9836C58.8468 13.9836 57.3105 14.921 56.1388 16.3271L56.0867 16.3011L57.7792 7.448H53.3787L49.0824 29.9973H53.4829L54.941 22.2899C55.5139 19.3736 57.0241 17.577 58.4302 17.577C59.4197 17.577 59.8102 18.254 59.8102 19.2174C59.8102 19.8163 59.7582 20.5714 59.628 21.1703L57.9615 29.9973H62.362L64.0805 20.8838C64.2628 19.9204 64.393 18.7747 64.393 17.9936C64.419 15.4939 63.1171 13.9836 60.7997 13.9836Z" fill="black"/>
<path d="M74.3933 13.9836C69.0814 13.9836 65.5662 18.7747 65.5662 24.1126C65.5662 27.5236 67.6753 30.2837 71.6332 30.2837C76.8409 30.2837 80.3561 25.6228 80.3561 20.1548C80.3821 17.0041 78.5334 13.9836 74.3933 13.9836ZM72.2321 26.9248C70.7218 26.9248 70.0969 25.6489 70.0969 24.0345C70.0969 21.5088 71.3988 17.3947 73.7944 17.3947C75.3567 17.3947 75.8774 18.7487 75.8774 20.0506C75.8774 22.7586 74.5495 26.9248 72.2321 26.9248Z" fill="black"/>
<path d="M91.656 13.9836C88.6876 13.9836 86.9951 16.6135 86.9951 16.6135H86.9431L87.2035 14.244H83.2977C83.1154 15.8324 82.7509 18.28 82.4124 20.1027L79.3398 36.2465H83.7403L84.9641 29.7109H85.0683C85.0683 29.7109 85.9796 30.2837 87.6461 30.2837C92.8278 30.2837 96.2128 24.9719 96.2128 19.6079C96.2128 16.6396 94.8848 13.9836 91.656 13.9836ZM87.4378 26.9768C86.2921 26.9768 85.6151 26.3259 85.6151 26.3259L86.3442 22.2118C86.865 19.4517 88.2971 17.629 89.8333 17.629C91.1873 17.629 91.6039 18.8789 91.6039 20.0506C91.6039 22.9148 89.9114 26.9768 87.4378 26.9768Z" fill="black"/>
<path d="M102.513 7.65625C101.107 7.65625 99.9875 8.7759 99.9875 10.208C99.9875 11.5099 100.821 12.4213 102.071 12.4213H102.123C103.503 12.4213 104.674 11.4839 104.7 9.86952C104.7 8.59363 103.841 7.65625 102.513 7.65625Z" fill="black"/>
<path d="M96.3428 29.9712H100.743L103.738 14.3481H99.3112L96.3428 29.9712Z" fill="black"/>
<path d="M114.961 14.3221H111.888L112.045 13.593C112.305 12.0828 113.19 10.7548 114.674 10.7548C115.456 10.7548 116.081 10.9892 116.081 10.9892L116.94 7.52607C116.94 7.52607 116.185 7.1355 114.544 7.1355C112.982 7.1355 111.42 7.57815 110.222 8.59365C108.712 9.86954 108.009 11.7183 107.67 13.593L107.54 14.3221H105.483L104.832 17.655H106.889L104.546 29.9973H108.946L111.289 17.655H114.336L114.961 14.3221Z" fill="black"/>
<path d="M125.585 14.3481C125.585 14.3481 122.825 21.3004 121.601 25.102H121.549C121.471 23.8782 120.455 14.3481 120.455 14.3481H115.821L118.477 28.6953C118.529 29.0078 118.503 29.2161 118.372 29.4244C117.852 30.4139 116.992 31.3773 115.977 32.0803C115.144 32.6792 114.206 33.0698 113.477 33.3302L114.701 37.0797C115.586 36.8974 117.461 36.1423 119.023 34.6842C121.028 32.8094 122.903 29.8931 124.804 25.9353L130.194 14.3481H125.585Z" fill="black"/>
</svg>
