<svg width="131" height="30" viewBox="0 0 131 30" fill="none" xmlns="http://www.w3.org/2000/svg">
<path d="M75.5092 11.636H70.3842V12.1801C71.9872 12.1801 72.2449 12.5239 72.2449 14.5583V18.226C72.2449 20.2602 71.9875 20.6327 70.3842 20.6327C69.1534 20.4609 68.3228 19.8018 67.1776 18.5411L65.8607 17.1086C67.6357 16.793 68.5803 15.6759 68.5803 14.415C68.5803 12.8395 67.235 11.636 64.7153 11.636H59.6763V12.1801C61.2794 12.1801 61.5371 12.5239 61.5371 14.5583V18.226C61.5371 20.2602 61.2794 20.6327 59.6763 20.6327V21.1771H65.3737V20.6327C63.7706 20.6327 63.5129 20.2602 63.5129 18.226V17.1948H63.9994L67.1776 21.1771H75.5092C79.6032 21.1771 81.3784 18.9998 81.3784 16.392C81.3784 13.7848 79.6035 11.636 75.5092 11.636ZM63.5131 16.3059V12.4957H64.6868C65.975 12.4957 66.5478 13.3838 66.5478 14.4153C66.5478 15.4182 65.975 16.3061 64.6868 16.3061H63.5131V16.3059ZM75.5952 20.2889H75.3946C74.3642 20.2889 74.221 20.0312 74.221 18.7131V12.4957C74.221 12.4957 75.4807 12.4957 75.5952 12.4957C78.5728 12.4957 79.1164 14.6729 79.1164 16.3636C79.1164 18.1111 78.5725 20.2889 75.5952 20.2889Z" fill="#00749A"/>
<path d="M43.731 17.3665L45.7065 11.5211C46.2794 9.83068 46.0216 9.34378 44.1893 9.34378V8.77051H49.5718V9.34378C47.7681 9.34378 47.3388 9.7735 46.6229 11.8651L43.3587 21.6641H42.9867L40.0661 12.6958L37.0888 21.6641H36.7165L33.5386 11.8651C32.8515 9.7735 32.3934 9.34378 30.7327 9.34378V8.77051H37.0888V9.34378C35.3994 9.34378 34.9411 9.74478 35.5426 11.5211L37.4608 17.3665L40.3525 8.77051H40.8966L43.731 17.3665Z" fill="#00749A"/>
<path d="M53.4638 21.5493C50.3146 21.5493 47.7378 19.2287 47.7378 16.3918C47.7378 13.584 50.3149 11.2629 53.4638 11.2629C56.6133 11.2629 59.1899 13.584 59.1899 16.3918C59.1899 19.2287 56.6133 21.5493 53.4638 21.5493ZM53.4638 12.1518C50.8301 12.1518 49.9137 14.5296 49.9137 16.392C49.9137 18.2834 50.8301 20.6327 53.4638 20.6327C56.1268 20.6327 57.0429 18.2834 57.0429 16.392C57.0429 14.5296 56.1268 12.1518 53.4638 12.1518Z" fill="#00749A"/>
<path d="M87.9272 20.5131V21.0862H81.3708V20.5131C83.2893 20.5131 83.6328 20.0262 83.6328 17.1606V12.5766C83.6328 9.7109 83.2893 9.25272 81.3708 9.25272V8.67944H87.2972C90.2461 8.67944 91.8786 10.198 91.8786 12.2327C91.8786 14.2098 90.2461 15.7568 87.2972 15.7568H85.6653V17.1603C85.6653 20.0262 86.0088 20.5131 87.9272 20.5131ZM87.2972 9.7109H85.6653V14.6967H87.2972C88.9008 14.6967 89.645 13.5793 89.645 12.2327C89.645 10.8575 88.9008 9.7109 87.2972 9.7109Z" fill="#464342"/>
<path d="M112.07 18.4839L111.926 18.9995C111.669 19.9451 111.354 20.2889 109.321 20.2889H108.92C107.431 20.2889 107.174 19.9451 107.174 17.9109V16.593C109.407 16.593 109.579 16.7933 109.579 18.2834H110.123V14.014H109.579C109.579 15.5039 109.407 15.7044 107.174 15.7044V12.4957H108.748C110.781 12.4957 111.096 12.8395 111.354 13.785L111.497 14.3291H111.955L111.755 11.636H103.337V12.1801C104.94 12.1801 105.198 12.5239 105.198 14.5583V18.226C105.198 20.087 104.979 20.5558 103.715 20.6226C102.514 20.439 101.689 19.7832 100.56 18.5411L99.2432 17.1086C101.018 16.793 101.963 15.6759 101.963 14.415C101.963 12.8395 100.618 11.636 98.0982 11.636H93.0593V12.1801C94.6624 12.1801 94.9201 12.5239 94.9201 14.5583V18.226C94.9201 20.2602 94.6626 20.6327 93.0593 20.6327V21.1771H98.7569V20.6327C97.1539 20.6327 96.8959 20.2602 96.8959 18.226V17.1948H97.3827L100.561 21.1771H112.328L112.499 18.4842H112.07V18.4839ZM96.8957 16.3059V12.4957H98.0693C99.3577 12.4957 99.9306 13.3838 99.9306 14.4153C99.9306 15.4182 99.3577 16.3061 98.0693 16.3061H96.8957V16.3059Z" fill="#464342"/>
<path d="M117.883 21.5491C116.738 21.5491 115.736 20.9476 115.307 20.5748C115.163 20.7184 114.906 21.1481 114.849 21.5491H114.305V17.5955H114.877C115.106 19.4864 116.423 20.6037 118.112 20.6037C119.029 20.6037 119.773 20.0881 119.773 19.2287C119.773 18.4839 119.115 17.9106 117.941 17.3663L116.309 16.5928C115.163 16.048 114.305 15.1024 114.305 13.842C114.305 12.4667 115.593 11.2921 117.368 11.2921C118.313 11.2921 119.114 11.636 119.601 12.037C119.744 11.9224 119.888 11.607 119.974 11.2629H120.518V14.6442H119.916C119.716 13.2974 118.971 12.18 117.454 12.18C116.653 12.18 115.908 12.6385 115.908 13.3551C115.908 14.0999 116.509 14.5009 117.884 15.1313L119.458 15.9049C120.833 16.5638 121.376 17.6245 121.376 18.4839C121.376 20.2886 119.802 21.5491 117.883 21.5491Z" fill="#464342"/>
<path d="M126.701 21.5491C125.555 21.5491 124.553 20.9476 124.124 20.5748C123.981 20.7184 123.723 21.1481 123.666 21.5491H123.122V17.5955H123.695C123.924 19.4864 125.241 20.6037 126.93 20.6037C127.846 20.6037 128.591 20.0881 128.591 19.2287C128.591 18.4839 127.932 17.9106 126.758 17.3663L125.126 16.5928C123.981 16.048 123.122 15.1024 123.122 13.842C123.122 12.4667 124.41 11.2921 126.185 11.2921C127.13 11.2921 127.932 11.636 128.419 12.037C128.562 11.9224 128.705 11.607 128.79 11.2629H129.335V14.6442H128.734C128.533 13.2974 127.789 12.18 126.271 12.18C125.47 12.18 124.725 12.6385 124.725 13.3551C124.725 14.0999 125.326 14.5009 126.701 15.1313L128.275 15.9049C129.65 16.5638 130.193 17.6245 130.193 18.4839C130.193 20.2886 128.619 21.5491 126.701 21.5491Z" fill="#464342"/>
<path d="M2.10059 14.7808C2.10059 19.7998 5.0152 24.1373 9.24163 26.1927L3.19758 9.62036C2.49454 11.1973 2.10059 12.9425 2.10059 14.7808Z" fill="#464342"/>
<path d="M23.3238 14.1406C23.3238 12.5735 22.7613 11.4882 22.2789 10.6435C21.6366 9.599 21.0346 8.71448 21.0346 7.66999C21.0346 6.50438 21.918 5.41936 23.1623 5.41936C23.2184 5.41936 23.2717 5.42635 23.3264 5.42949C21.0722 3.36271 18.0688 2.10083 14.7702 2.10083C10.3436 2.10083 6.44918 4.37366 4.18359 7.8162C4.48087 7.82513 4.76102 7.8314 4.99898 7.8314C6.32429 7.8314 8.37579 7.67047 8.37579 7.67047C9.05881 7.63018 9.13934 8.63413 8.45704 8.71496C8.45704 8.71496 7.77063 8.79579 7.00684 8.83584L11.6209 22.5705L14.3938 14.2482L12.4197 8.83536C11.7374 8.79531 11.091 8.71448 11.091 8.71448C10.4082 8.67443 10.4883 7.6297 11.1711 7.66999C11.1711 7.66999 13.2635 7.83092 14.5086 7.83092C15.8336 7.83092 17.8854 7.66999 17.8854 7.66999C18.5689 7.6297 18.6492 8.63365 17.9666 8.71448C17.9666 8.71448 17.2788 8.79531 16.5164 8.83536L21.0953 22.4661L22.3592 18.2396C22.9069 16.4858 23.3238 15.2261 23.3238 14.1406Z" fill="#464342"/>
<path d="M14.9928 15.8899L11.1912 26.945C12.3262 27.2789 13.5267 27.4615 14.7705 27.4615C16.246 27.4615 17.661 27.2063 18.9781 26.7428C18.9441 26.6885 18.9133 26.6308 18.8879 26.5681L14.9928 15.8899Z" fill="#464342"/>
<path d="M25.8884 8.69678C25.9428 9.10068 25.9737 9.53425 25.9737 10.0006C25.9737 11.2874 25.7336 12.7338 25.0103 14.5424L21.14 25.7408C24.9069 23.5426 27.4405 19.4585 27.4405 14.7806C27.4408 12.576 26.8781 10.503 25.8884 8.69678Z" fill="#464342"/>
<path d="M14.7701 0C6.62606 0 0 6.63054 0 14.7806C0 22.9317 6.62606 29.562 14.7701 29.562C22.9138 29.562 29.5409 22.9317 29.5409 14.7806C29.5406 6.63054 22.9138 0 14.7701 0ZM14.7701 28.8845C6.99952 28.8845 0.677241 22.5575 0.677241 14.7806C0.677241 7.00428 6.99928 0.677748 14.7701 0.677748C22.5404 0.677748 28.8622 7.00428 28.8622 14.7806C28.8622 22.5575 22.5404 28.8845 14.7701 28.8845Z" fill="#464342"/>
</svg>
